<svg xmlns="http://www.w3.org/2000/svg" viewBox="0 0 1400 560" role="img" aria-labelledby="title description">
  <title id="title">Section Nav for ChatGPT large promotional tile</title>
  <description id="description">A large promotional tile showing answer sections, an active section marker, and bookmarks.</description>
  <defs>
    <linearGradient id="bg" x1="80" y1="30" x2="1320" y2="530" gradientUnits="userSpaceOnUse">
      <stop stop-color="#FAF8F2" />
      <stop offset="1" stop-color="#E4ECE6" />
    </linearGradient>
    <filter id="panelShadow" x="-20%" y="-20%" width="140%" height="160%">
      <feDropShadow dx="0" dy="18" stdDeviation="28" flood-color="#23342D" flood-opacity="0.15" />
    </filter>
  </defs>
  <rect width="1400" height="560" rx="36" fill="url(#bg)" />
  <g transform="translate(96 92)">
    <rect width="104" height="104" rx="30" fill="#17231E" />
    <path d="M31 25V80" stroke="#B9C5BE" stroke-opacity="0.45" stroke-width="4" stroke-linecap="round" />
    <rect x="44" y="30" width="34" height="5" rx="2.5" fill="#F6F3E9" fill-opacity="0.65" />
    <rect x="44" y="51" width="43" height="6" rx="3" fill="#F6F3E9" />
    <rect x="44" y="73" width="30" height="5" rx="2.5" fill="#F6F3E9" fill-opacity="0.6" />
    <circle cx="31" cy="54" r="7.5" fill="#F6F3E9" />
    <path d="M84 17L87 24L95 25L89 31L91 39L84 35L77 39L79 31L73 25L81 24L84 17Z" fill="#D8A94A" />
  </g>
  <text x="96" y="252" fill="#17201C" font-family="Arial, sans-serif" font-size="54" font-weight="700">Section Nav for ChatGPT</text>
  <text x="96" y="306" fill="#4F5F57" font-family="Arial, sans-serif" font-size="24">Navigate long answers by heading. Save important sections locally.</text>
  <g transform="translate(96 358)">
    <rect width="178" height="48" rx="24" fill="#17231E" />
    <text x="28" y="31" fill="#F7F4EA" font-family="Arial, sans-serif" font-size="15" font-weight="600">Answer sections</text>
    <rect x="194" width="166" height="48" rx="24" fill="#FFFFFF" fill-opacity="0.72" />
    <text x="220" y="31" fill="#34433C" font-family="Arial, sans-serif" font-size="15" font-weight="600">Local bookmarks</text>
    <rect x="376" width="156" height="48" rx="24" fill="#FFFFFF" fill-opacity="0.72" />
    <text x="402" y="31" fill="#34433C" font-family="Arial, sans-serif" font-size="15" font-weight="600">Light &amp; dark</text>
  </g>
  <g transform="translate(872 64)" filter="url(#panelShadow)">
    <rect width="420" height="432" rx="28" fill="#FFFFFF" fill-opacity="0.88" stroke="#1E2B25" stroke-opacity="0.1" />
    <text x="42" y="56" fill="#17201C" font-family="Arial, sans-serif" font-size="14" font-weight="700">CURRENT ANSWER</text>
    <line x1="42" y1="78" x2="378" y2="78" stroke="#17201C" stroke-opacity="0.1" />
    <path d="M66 116V356" stroke="#7C8B84" stroke-opacity="0.35" stroke-width="3" stroke-linecap="round" />
    <g fill="#52615A" font-family="Arial, sans-serif" font-size="16">
      <text x="96" y="124">Overview</text>
      <text x="96" y="184">Reading band</text>
      <text x="118" y="244">Hysteresis model</text>
      <text x="96" y="304">Local bookmarks</text>
      <text x="96" y="364">Summary</text>
    </g>
    <g fill="#AAB5AF">
      <rect x="63" y="116" width="20" height="2" rx="1" />
      <rect x="63" y="176" width="20" height="2" rx="1" />
      <rect x="63" y="296" width="20" height="2" rx="1" />
      <rect x="63" y="356" width="20" height="2" rx="1" />
    </g>
    <circle cx="66" cy="236" r="8" fill="#17201C" />
    <path d="M350 286L355 296L366 298L358 306L360 317L350 312L340 317L342 306L334 298L345 296L350 286Z" fill="#D8A94A" />
  </g>
  <text x="96" y="500" fill="#68756F" font-family="Arial, sans-serif" font-size="13">Independent extension · No remote code · No server upload</text>
</svg>
